<svg xmlns="http://www.w3.org/2000/svg" xmlns:xlink="http://www.w3.org/1999/xlink">
    <defs>

        <symbol id="icon-conversion" viewBox="0 0 17 17">
        <path fill="" fill-rule="evenodd" d="M11.726 1.273l2.387 2.394H.667V5h13.446l-2.386 2.393.94.94 4-4-4-4-.94.94zM.666 12.333l4 4 .94-.94L3.22 13h13.447v-1.333H3.22l2.386-2.394-.94-.94-4 4z" clip-rule="evenodd"></path>
        </symbol>

         <symbol id="icon-loading" viewBox="0 0 100 100">
             <circle xmlns="http://www.w3.org/2000/svg" cx="50" cy="50" fill="none" stroke="#006fe8" stroke-width="10" r="35" stroke-dasharray="164.93361431346415 56.97787143782138">
                <animateTransform attributeName="transform" type="rotate" repeatCount="indefinite" dur="1s" values="0 50 50;360 50 50" keyTimes="0;1"/>
            </circle>
        </symbol>

        <symbol id="icon-info" viewBox="0 0 50 50">
            <path xmlns="http://www.w3.org/2000/svg" d="M25,2C12.297,2,2,12.297,2,25s10.297,23,23,23s23-10.297,23-23S37.703,2,25,2z M25,11c1.657,0,3,1.343,3,3s-1.343,3-3,3 s-3-1.343-3-3S23.343,11,25,11z M29,38h-2h-4h-2v-2h2V23h-2v-2h2h4v2v13h2V38z"/>        </symbol>
        </symbol>
    </defs>
</svg>